<svg width="178" height="153" viewBox="0 0 178 153" fill="none" xmlns="http://www.w3.org/2000/svg">
<g clip-path="url(#clip0)">
<g opacity="0.8">
<path opacity="0.8" d="M91.5429 51.7338C108.683 51.7338 122.578 41.041 122.578 27.8508C122.578 14.6606 108.683 3.96777 91.5429 3.96777C74.4024 3.96777 60.5073 14.6606 60.5073 27.8508C60.5073 41.041 74.4024 51.7338 91.5429 51.7338Z" fill="url(#paint0_linear)"/>
</g>
<path d="M91.5428 51.2032C108.303 51.2032 121.89 40.7479 121.89 27.8506C121.89 14.9534 108.303 4.49805 91.5428 4.49805C74.7827 4.49805 61.1959 14.9534 61.1959 27.8506C61.1959 40.7479 74.7827 51.2032 91.5428 51.2032Z" fill="#2285EE"/>
<path opacity="0.1" d="M66.1015 30.4463C66.1015 17.5491 79.6867 7.09367 96.4463 7.09367C101.65 7.06522 106.801 8.12152 111.568 10.1943C106.234 6.61584 99.2561 4.44141 91.6191 4.44141C74.8595 4.44141 61.2722 14.8968 61.2722 27.794C61.2722 36.4538 67.3984 44.0128 76.4997 48.0459C70.1277 43.7644 66.1015 37.4684 66.1015 30.4463Z" fill="#0067DD"/>
<path d="M91.5429 37.2373L125.185 95.1199L158.827 153H91.5429H24.2589L57.9009 95.1199L91.5429 37.2373Z" fill="#E9F3FD"/>
<g opacity="0.3">
<path opacity="0.3" d="M99.5252 119.187L102.138 111.485C103.037 108.803 103.044 105.905 102.159 103.218C101.273 100.532 99.5429 98.1987 97.2218 96.5631L97.243 96.5505C96.2153 95.8318 95.0883 95.2646 93.897 94.8665L93.861 94.8539L93.8208 94.8412C92.6644 94.4527 91.459 94.2274 90.2396 94.1719C89.8083 94.1497 89.3761 94.1497 88.9448 94.1719C88.1965 94.2108 87.4529 94.3129 86.722 94.4771C86.51 94.5234 86.2982 94.576 86.1053 94.6328C85.9125 94.6897 85.6963 94.7507 85.495 94.816C85.0924 94.9486 84.6961 95.098 84.3084 95.2685C84.1134 95.3527 83.9206 95.4411 83.732 95.5359C83.1617 95.8156 82.6128 96.1364 82.0897 96.4957C81.9138 96.6157 81.7422 96.7399 81.5727 96.8662C79.4781 98.4485 77.9101 100.619 77.0718 103.097L72.9651 115.232C72.3188 117.135 72.1244 119.161 72.3972 121.151C72.4396 121.457 72.4926 121.76 72.554 122.061C72.6155 122.362 72.6917 122.658 72.7659 122.953C72.8231 123.149 72.8825 123.345 72.9481 123.538C73.0456 123.827 73.1601 124.115 73.2681 124.397C73.3465 124.585 73.4292 124.772 73.516 124.957C73.6877 125.325 73.8784 125.685 74.084 126.037C74.2895 126.388 74.5078 126.732 74.7536 127.064C74.9316 127.313 75.1202 127.557 75.3151 127.792C75.5779 128.108 75.8534 128.424 76.1458 128.704C77.4115 129.972 78.9262 130.967 80.5958 131.628L80.6678 131.657C80.7575 131.499 80.8566 131.347 80.9645 131.2C81.6002 130.335 82.7064 129.727 83.7595 129.954C83.8358 129.971 83.9121 129.994 83.9884 130.017C84.5224 130.205 85.0479 130.539 85.5628 130.704C85.7501 130.787 85.9535 130.829 86.1589 130.827C86.3642 130.824 86.5665 130.777 86.7516 130.689C87.7815 130.144 87.4 128.424 88.2837 127.67C88.3248 127.636 88.368 127.603 88.413 127.574C88.4005 127.558 88.3891 127.542 88.3791 127.525C89.0614 127.104 90.0065 127.384 90.7926 127.656C91.6403 127.952 92.7464 128.152 93.3355 127.464C93.7339 126.993 93.7042 126.275 94.0835 125.78C94.5243 125.212 95.355 125.149 96.0733 125.25L96.1093 125.26C97.4867 125.824 98.9912 124.888 98.8853 123.412C98.7603 121.444 99.3833 119.589 99.5252 119.187Z" fill="url(#paint1_linear)"/>
</g>
<path d="M81.204 130.553C81.8228 129.711 82.8844 129.122 83.9016 129.351C84.9187 129.58 85.8829 130.542 86.7877 130.06C88.0252 129.404 87.1479 126.989 89.1568 126.81C89.5754 126.783 89.9946 126.855 90.3795 127.021C91.2271 127.364 92.5536 127.751 93.2063 126.979C93.5898 126.524 93.5623 125.831 93.9289 125.36C94.3527 124.813 95.1601 124.743 95.8488 124.848L95.8827 124.859C97.2113 125.404 98.665 124.499 98.5611 123.076C98.4276 121.182 99.0337 119.397 99.1651 119.009L101.682 111.577C102.753 108.39 102.511 104.912 101.008 101.903C99.5048 98.8941 96.8638 96.5984 93.6619 95.5178C90.4545 94.4555 86.9543 94.6974 83.926 96.1907C80.8976 97.684 78.5873 100.307 77.4999 103.487L73.5309 115.176C72.4994 118.25 72.6887 121.6 74.0601 124.54C75.4315 127.48 77.8815 129.789 80.9095 130.995C80.9989 130.842 81.0972 130.694 81.204 130.553Z" fill="#2285EE"/>
<path d="M85.8956 103.689C86.6575 103.689 87.2751 103.075 87.2751 102.319C87.2751 101.562 86.6575 100.948 85.8956 100.948C85.1337 100.948 84.5161 101.562 84.5161 102.319C84.5161 103.075 85.1337 103.689 85.8956 103.689Z" fill="white"/>
<path d="M93.7404 106.31C94.5022 106.31 95.1199 105.696 95.1199 104.94C95.1199 104.183 94.5022 103.569 93.7404 103.569C92.9785 103.569 92.3608 104.183 92.3608 104.94C92.3608 105.696 92.9785 106.31 93.7404 106.31Z" fill="white"/>
<path d="M89.3711 109.274C89.7354 108.198 89.4454 107.131 88.7233 106.889C88.0013 106.648 87.1205 107.324 86.7562 108.4C86.3919 109.475 86.6819 110.542 87.404 110.784C88.1261 111.025 89.0068 110.349 89.3711 109.274Z" fill="white"/>
<path d="M117.084 104.676C118.226 104.676 119.152 103.756 119.152 102.622C119.152 101.487 118.226 100.567 117.084 100.567C115.942 100.567 115.016 101.487 115.016 102.622C115.016 103.756 115.942 104.676 117.084 104.676Z" fill="white"/>
<path d="M123.636 100.418C124.207 100.418 124.67 99.9578 124.67 99.3905C124.67 98.8232 124.207 98.3633 123.636 98.3633C123.065 98.3633 122.602 98.8232 122.602 99.3905C122.602 99.9578 123.065 100.418 123.636 100.418Z" fill="white"/>
<g opacity="0.5">
<g opacity="0.3">
<path opacity="0.3" d="M102.28 36.4618L104.893 28.7597C105.791 26.0774 105.799 23.1794 104.913 20.4928C104.028 17.8062 102.298 15.4731 99.9767 13.8375L99.9979 13.8249C98.9702 13.1062 97.8432 12.539 96.6519 12.1409L96.6159 12.1283L96.5757 12.1157C95.4193 11.7272 94.2138 11.5018 92.9945 11.4463C92.5632 11.4242 92.131 11.4242 91.6997 11.4463C90.9514 11.4852 90.2077 11.5873 89.4768 11.7515C89.2649 11.7978 89.053 11.8504 88.8602 11.9073C88.6674 11.9641 88.4512 12.0251 88.2499 12.0904C87.8473 12.223 87.451 12.3725 87.0632 12.543C86.8683 12.6272 86.6755 12.7156 86.4869 12.8103C85.9166 13.09 85.3677 13.4108 84.8446 13.7702C84.6687 13.8901 84.4971 14.0143 84.3276 14.1406C82.233 15.7229 80.665 17.8936 79.8267 20.3714L75.72 32.5065C75.0737 34.4097 74.8793 36.4356 75.1521 38.4257C75.1945 38.7309 75.2474 39.0341 75.3089 39.3351C75.3703 39.6361 75.4466 39.9329 75.5208 40.2276C75.578 40.4233 75.6373 40.6191 75.703 40.8128C75.8005 41.1011 75.9149 41.3895 76.023 41.6716C76.1014 41.8589 76.1841 42.0463 76.2709 42.2315C76.4426 42.5999 76.6333 42.9598 76.8388 43.3114C77.0444 43.6629 77.2627 44.006 77.5085 44.3386C77.6865 44.587 77.875 44.8312 78.07 45.0669C78.3328 45.3827 78.6082 45.6879 78.9007 45.9784C80.1664 47.2459 81.6811 48.2412 83.3507 48.9022L83.4227 48.9316C83.5124 48.7737 83.6114 48.6211 83.7194 48.4749C84.3551 47.6097 85.4612 47.0014 86.5144 47.2287C86.5907 47.2456 86.667 47.2687 86.7433 47.2919C87.2773 47.4792 87.8028 47.8139 88.3177 47.9781C88.505 48.0617 88.7084 48.1037 88.9137 48.1011C89.1191 48.0986 89.3214 48.0516 89.5065 47.9634C90.5364 47.4182 90.1549 45.6984 91.0386 44.9448C91.0797 44.9101 91.1229 44.8777 91.1678 44.848C91.1553 44.8327 91.144 44.8165 91.1339 44.7996C91.8163 44.3786 92.7614 44.6586 93.5475 44.9301C94.3952 45.2269 95.5013 45.4269 96.0904 44.7385C96.4888 44.267 96.4591 43.5492 96.8384 43.0546C97.2792 42.4862 98.1098 42.4231 98.8282 42.5241H98.8642C100.242 43.0882 101.746 42.1515 101.64 40.6759C101.515 38.7183 102.138 36.8638 102.28 36.4618Z" fill="url(#paint2_linear)"/>
</g>
<path opacity="0.5" d="M83.9589 47.8264C84.5777 46.9844 85.6393 46.395 86.6564 46.6245C87.6736 46.8539 88.6377 47.8159 89.5426 47.3338C90.7801 46.6771 89.9028 44.2627 91.9117 44.0838C92.3303 44.0563 92.7495 44.1284 93.1344 44.2943C93.982 44.6374 95.3085 45.0247 95.9612 44.2522C96.3447 43.7975 96.3172 43.1049 96.6838 42.6334C97.1076 42.0861 97.9149 42.0167 98.6036 42.1219L98.6375 42.1325C99.9662 42.6776 101.42 41.7725 101.316 40.3495C101.183 38.4551 101.789 36.67 101.92 36.2827L104.437 28.8501C105.508 25.6637 105.266 22.1859 103.763 19.1767C102.26 16.1676 99.6187 13.8718 96.4168 12.7912C93.2094 11.7289 89.7092 11.9709 86.6808 13.4641C83.6525 14.9574 81.3422 17.5806 80.2548 20.7606L76.2858 32.4496C75.2543 35.5238 75.4435 38.8733 76.815 41.8135C78.1864 44.7537 80.6364 47.0627 83.6643 48.2684C83.7537 48.1155 83.8521 47.9679 83.9589 47.8264Z" fill="white"/>
<path opacity="0.2" d="M88.6504 20.9624C89.4123 20.9624 90.0299 20.3488 90.0299 19.592C90.0299 18.8352 89.4123 18.2217 88.6504 18.2217C87.8885 18.2217 87.2709 18.8352 87.2709 19.592C87.2709 20.3488 87.8885 20.9624 88.6504 20.9624Z" fill="black"/>
<path opacity="0.2" d="M96.4951 23.5835C97.257 23.5835 97.8746 22.9699 97.8746 22.2131C97.8746 21.4563 97.257 20.8428 96.4951 20.8428C95.7332 20.8428 95.1156 21.4563 95.1156 22.2131C95.1156 22.9699 95.7332 23.5835 96.4951 23.5835Z" fill="black"/>
</g>
<path opacity="0.1" d="M120.684 20.9297C121.078 22.4422 121.277 23.9983 121.275 25.5606C121.275 38.4578 107.69 48.9132 90.9305 48.9132C77.2139 48.9048 65.6248 41.9036 61.8762 32.2965C64.6606 42.9835 76.9215 51.0308 91.6298 51.0308C108.389 51.0308 121.977 40.5754 121.977 27.6782C121.972 25.3684 121.534 23.0797 120.684 20.9297Z" fill="black"/>
<g opacity="0.8">
<path opacity="0.8" d="M91.5428 54.3275C126.205 54.3275 154.305 47.0321 154.305 38.0329C154.305 29.0336 126.205 21.7383 91.5428 21.7383C56.8804 21.7383 28.7809 29.0336 28.7809 38.0329C28.7809 47.0321 56.8804 54.3275 91.5428 54.3275Z" fill="url(#paint3_linear)"/>
</g>
<path d="M91.5429 22.2773C58.0238 22.2773 30.8491 29.3311 30.8491 38.0352H152.237C152.237 29.3311 125.062 22.2773 91.5429 22.2773Z" fill="white"/>
<path d="M91.5429 53.7909C125.062 53.7909 152.237 46.7371 152.237 38.0352H30.8491C30.8491 46.7371 58.0238 53.7909 91.5429 53.7909Z" fill="white"/>
<path d="M116.861 33.9219H66.2244C64.2092 33.9219 62.5754 35.5447 62.5754 37.5466V38.5191C62.5754 40.521 64.2092 42.1439 66.2244 42.1439H116.861C118.876 42.1439 120.51 40.521 120.51 38.5191V37.5466C120.51 35.5447 118.876 33.9219 116.861 33.9219Z" fill="#B7C2CE"/>
<path opacity="0.5" d="M28.3719 12.1695C28.1968 12.0936 28.0559 11.9565 27.9758 11.7842C27.8958 11.6119 27.8821 11.4165 27.9375 11.2349C27.9464 11.2068 27.9521 11.1779 27.9545 11.1486C27.9599 11.0653 27.938 10.9825 27.8922 10.9125C27.8464 10.8425 27.7791 10.7891 27.7002 10.7602C27.6214 10.7314 27.5352 10.7286 27.4547 10.7523C27.3741 10.776 27.3034 10.8249 27.2531 10.8918C27.2361 10.9153 27.2219 10.9408 27.2107 10.9675C27.1347 11.1418 26.9967 11.2821 26.8232 11.3617C26.6496 11.4412 26.4526 11.4546 26.2698 11.3991C26.2415 11.3905 26.2124 11.3848 26.1829 11.3822C26.0991 11.3768 26.0157 11.3985 25.9453 11.444C25.8748 11.4896 25.8211 11.5565 25.792 11.6348C25.7629 11.7131 25.7601 11.7987 25.784 11.8787C25.8079 11.9588 25.8571 12.029 25.9244 12.079C25.9478 12.0969 25.9735 12.1118 26.0007 12.1232C26.1758 12.1991 26.3167 12.3362 26.3968 12.5084C26.4769 12.6807 26.4905 12.8762 26.4351 13.0578C26.4264 13.0852 26.4207 13.1134 26.4182 13.142C26.4122 13.2255 26.4337 13.3086 26.4793 13.379C26.525 13.4493 26.5923 13.5031 26.6713 13.5323C26.7503 13.5614 26.8366 13.5644 26.9174 13.5407C26.9983 13.517 27.0692 13.468 27.1196 13.4009C27.137 13.3768 27.1512 13.3507 27.1619 13.323C27.2398 13.1507 27.3786 13.0127 27.552 12.9352C27.7253 12.8576 27.9213 12.8458 28.1028 12.902C28.1311 12.9106 28.1602 12.9163 28.1897 12.9189C28.2735 12.9242 28.3569 12.9025 28.4274 12.857C28.4978 12.8115 28.5516 12.7446 28.5806 12.6663C28.6097 12.588 28.6125 12.5024 28.5886 12.4224C28.5648 12.3423 28.5155 12.2721 28.4482 12.2221C28.4253 12.2012 28.3996 12.1835 28.3719 12.1695Z" fill="#4D8AF0"/>
<path opacity="0.5" d="M136.231 76.5816C136.058 76.5038 135.92 76.366 135.842 76.1939C135.764 76.0218 135.752 75.8273 135.808 75.647C135.817 75.6189 135.822 75.59 135.825 75.5607C135.83 75.4774 135.808 75.3946 135.762 75.3246C135.717 75.2546 135.649 75.2012 135.57 75.1723C135.491 75.1435 135.405 75.1407 135.325 75.1644C135.244 75.1881 135.173 75.237 135.123 75.3039C135.106 75.3275 135.092 75.3529 135.081 75.3797C135.005 75.5539 134.867 75.6942 134.693 75.7738C134.52 75.8534 134.323 75.8667 134.14 75.8112C134.112 75.8026 134.083 75.7969 134.053 75.7943C133.969 75.789 133.886 75.8106 133.815 75.8562C133.745 75.9017 133.691 75.9686 133.662 76.0469C133.633 76.1252 133.63 76.2108 133.654 76.2908C133.678 76.3709 133.727 76.4411 133.795 76.4911C133.818 76.509 133.844 76.5239 133.871 76.5353C134.044 76.613 134.183 76.7509 134.261 76.923C134.339 77.0951 134.351 77.2896 134.295 77.4699C134.286 77.4973 134.28 77.5255 134.278 77.5541C134.272 77.6376 134.293 77.7207 134.339 77.7911C134.384 77.8615 134.452 77.9152 134.531 77.9444C134.61 77.9735 134.696 77.9765 134.777 77.9528C134.858 77.9291 134.929 77.8801 134.979 77.813C134.996 77.7889 135.011 77.7628 135.021 77.7351C135.099 77.5628 135.238 77.4249 135.411 77.3473C135.585 77.2697 135.781 77.2579 135.962 77.3141C135.991 77.3227 136.02 77.3284 136.049 77.331C136.133 77.3363 136.216 77.3147 136.287 77.2691C136.357 77.2236 136.411 77.1567 136.44 77.0784C136.469 77.0001 136.472 76.9145 136.448 76.8345C136.424 76.7544 136.375 76.6842 136.308 76.6342C136.285 76.6133 136.259 76.5956 136.231 76.5816Z" fill="#4D8AF0"/>
<path opacity="0.5" d="M17.141 106.471C16.9659 106.395 16.8249 106.258 16.7449 106.086C16.6648 105.914 16.6512 105.718 16.7066 105.537C16.7155 105.509 16.7211 105.48 16.7235 105.45C16.7289 105.367 16.7071 105.284 16.6613 105.214C16.6155 105.144 16.5481 105.091 16.4693 105.062C16.3904 105.033 16.3043 105.03 16.2237 105.054C16.1431 105.078 16.0724 105.127 16.0221 105.194C16.0051 105.217 15.9909 105.243 15.9797 105.269C15.9037 105.444 15.7657 105.584 15.5922 105.663C15.4186 105.743 15.2217 105.756 15.0389 105.701C15.0106 105.692 14.9815 105.687 14.952 105.684C14.8681 105.679 14.7848 105.7 14.7143 105.746C14.6439 105.791 14.5901 105.858 14.561 105.937C14.532 106.015 14.5292 106.1 14.553 106.18C14.5769 106.261 14.6262 106.331 14.6935 106.381C14.7169 106.399 14.7425 106.414 14.7697 106.425C14.9448 106.501 15.0858 106.638 15.1658 106.81C15.2459 106.982 15.2595 107.178 15.2042 107.36C15.1955 107.387 15.1898 107.415 15.1872 107.444C15.1813 107.527 15.2027 107.61 15.2484 107.681C15.294 107.751 15.3613 107.805 15.4403 107.834C15.5193 107.863 15.6057 107.866 15.6865 107.842C15.7673 107.819 15.8382 107.77 15.8886 107.703C15.906 107.679 15.9203 107.652 15.931 107.625C16.0089 107.452 16.1476 107.314 16.321 107.237C16.4944 107.159 16.6903 107.148 16.8718 107.204C16.9001 107.212 16.9293 107.218 16.9587 107.221C17.0426 107.226 17.1259 107.204 17.1964 107.159C17.2668 107.113 17.3206 107.046 17.3497 106.968C17.3787 106.89 17.3815 106.804 17.3577 106.724C17.3338 106.644 17.2846 106.574 17.2173 106.524C17.1943 106.503 17.1687 106.485 17.141 106.471Z" fill="#4D8AF0"/>
<path opacity="0.5" d="M5.4862 36.7974C5.31306 36.7197 5.17446 36.5818 5.09642 36.4097C5.01838 36.2376 5.00628 36.0431 5.06239 35.8628C5.07129 35.8348 5.07698 35.8058 5.07935 35.7765C5.08476 35.6932 5.06293 35.6104 5.01711 35.5404C4.97129 35.4704 4.90394 35.417 4.82509 35.3882C4.74624 35.3593 4.66012 35.3565 4.57954 35.3802C4.49896 35.4039 4.42825 35.4528 4.37794 35.5197C4.36097 35.5433 4.34676 35.5687 4.33556 35.5955C4.25953 35.7697 4.12157 35.91 3.94803 35.9896C3.77448 36.0692 3.57751 36.0825 3.3947 36.027C3.36641 36.0184 3.3373 36.0127 3.30782 36.0102C3.22396 36.0048 3.1406 36.0265 3.07015 36.072C2.9997 36.1175 2.94594 36.1844 2.91688 36.2627C2.88782 36.341 2.88501 36.4266 2.90887 36.5066C2.93273 36.5867 2.98199 36.6569 3.0493 36.7069C3.0727 36.7248 3.09835 36.7397 3.12558 36.7511C3.30066 36.827 3.4416 36.9641 3.52168 37.1364C3.60175 37.3086 3.61538 37.5041 3.55999 37.6857C3.5513 37.7131 3.54561 37.7413 3.54304 37.7699C3.53711 37.8534 3.55857 37.9365 3.6042 38.0069C3.64983 38.0773 3.71718 38.1311 3.79616 38.1602C3.87514 38.1894 3.9615 38.1923 4.04232 38.1686C4.12313 38.1449 4.19404 38.0959 4.24444 38.0288C4.26186 38.0048 4.2761 37.9786 4.28682 37.9509C4.36473 37.7786 4.50347 37.6407 4.67684 37.5631C4.8502 37.4855 5.04616 37.4737 5.22768 37.5299C5.25597 37.5385 5.28509 37.5442 5.31456 37.5468C5.39842 37.5522 5.48179 37.5305 5.55223 37.485C5.62268 37.4394 5.67644 37.3725 5.7055 37.2942C5.73456 37.2159 5.73737 37.1303 5.71351 37.0503C5.68965 36.9703 5.6404 36.9 5.57309 36.85C5.54692 36.8283 5.51763 36.8106 5.4862 36.7974Z" fill="#4D8AF0"/>
<path opacity="0.5" d="M134.112 1.43315C133.939 1.35541 133.801 1.21754 133.723 1.04544C133.645 0.873351 133.633 0.678877 133.689 0.498548C133.698 0.470503 133.703 0.441552 133.706 0.412243C133.711 0.328939 133.689 0.246129 133.643 0.17615C133.598 0.106171 133.53 0.0527686 133.451 0.0238993C133.372 -0.00497005 133.286 -0.00776104 133.206 0.0159417C133.125 0.0396445 133.054 0.0885723 133.004 0.155436C132.987 0.179022 132.973 0.204444 132.962 0.231215C132.884 0.403507 132.745 0.54148 132.572 0.619052C132.398 0.696623 132.202 0.708419 132.021 0.65221C131.993 0.6436 131.964 0.637955 131.934 0.63537C131.843 0.616336 131.748 0.630481 131.666 0.675233C131.584 0.719985 131.521 0.792377 131.489 0.879257C131.456 0.966137 131.456 1.06174 131.488 1.1487C131.521 1.23566 131.583 1.30821 131.665 1.35317C131.688 1.3711 131.714 1.38596 131.741 1.39737C131.914 1.47512 132.053 1.61299 132.131 1.78508C132.209 1.95717 132.221 2.15165 132.165 2.33198C132.156 2.35936 132.151 2.38759 132.148 2.41618C132.139 2.50286 132.16 2.59 132.207 2.66353C132.254 2.73706 132.325 2.79268 132.407 2.8214C132.49 2.85012 132.58 2.85026 132.663 2.8218C132.746 2.79334 132.817 2.73795 132.864 2.66457C132.882 2.64051 132.896 2.61433 132.907 2.58668C132.985 2.41439 133.123 2.27642 133.297 2.19884C133.47 2.12127 133.666 2.10948 133.848 2.16569C133.876 2.1743 133.905 2.17994 133.934 2.18253C134.018 2.1879 134.102 2.16621 134.172 2.1207C134.243 2.07519 134.296 2.00829 134.325 1.92996C134.354 1.85164 134.357 1.76608 134.333 1.68604C134.31 1.606 134.26 1.53576 134.193 1.48578C134.169 1.46456 134.142 1.44685 134.112 1.43315Z" fill="#4D8AF0"/>
<g opacity="0.5">
<path opacity="0.5" d="M23.9452 54.2764H23.3094V57.8548H23.9452V54.2764Z" fill="#47E6B1"/>
<path opacity="0.5" d="M25.4286 56.3815V55.75H21.8262V56.3815H25.4286Z" fill="#47E6B1"/>
</g>
<g opacity="0.5">
<path opacity="0.5" d="M176.517 37.4365H175.881V41.015H176.517V37.4365Z" fill="#47E6B1"/>
<path opacity="0.5" d="M178 39.5417V38.9102H174.398V39.5417H178Z" fill="#47E6B1"/>
</g>
<g opacity="0.5">
<path opacity="0.5" d="M155.326 96.166H154.69V99.7445H155.326V96.166Z" fill="#47E6B1"/>
<path opacity="0.5" d="M156.81 98.2711V97.6396H153.207V98.2711H156.81Z" fill="#47E6B1"/>
</g>
<path opacity="0.5" d="M153.207 18.4918C153.909 18.4918 154.479 17.9263 154.479 17.2288C154.479 16.5313 153.909 15.9658 153.207 15.9658C152.505 15.9658 151.936 16.5313 151.936 17.2288C151.936 17.9263 152.505 18.4918 153.207 18.4918Z" fill="#F24646"/>
<path opacity="0.5" d="M1.27143 3.96737C1.97362 3.96737 2.54286 3.40192 2.54286 2.70439C2.54286 2.00686 1.97362 1.44141 1.27143 1.44141C0.569238 1.44141 0 2.00686 0 2.70439C0 3.40192 0.569238 3.96737 1.27143 3.96737Z" fill="#F24646"/>
<path opacity="0.5" d="M39.4142 76.5895C40.1164 76.5895 40.6857 76.024 40.6857 75.3265C40.6857 74.6289 40.1164 74.0635 39.4142 74.0635C38.7121 74.0635 38.1428 74.6289 38.1428 75.3265C38.1428 76.024 38.7121 76.5895 39.4142 76.5895Z" fill="#F24646"/>
<path d="M49.5857 33.9811C53.5648 33.9811 56.7905 33.3214 56.7905 32.5077C56.7905 31.6939 53.5648 31.0342 49.5857 31.0342C45.6067 31.0342 42.381 31.6939 42.381 32.5077C42.381 33.3214 45.6067 33.9811 49.5857 33.9811Z" fill="#B7C2CE"/>
<path d="M49.5857 45.1364C53.5648 45.1364 56.7905 44.4767 56.7905 43.6629C56.7905 42.8492 53.5648 42.1895 49.5857 42.1895C45.6067 42.1895 42.381 42.8492 42.381 43.6629C42.381 44.4767 45.6067 45.1364 49.5857 45.1364Z" fill="#B7C2CE"/>
<path d="M131.593 33.9811C135.572 33.9811 138.798 33.3214 138.798 32.5077C138.798 31.6939 135.572 31.0342 131.593 31.0342C127.614 31.0342 124.388 31.6939 124.388 32.5077C124.388 33.3214 127.614 33.9811 131.593 33.9811Z" fill="#B7C2CE"/>
<path d="M131.593 45.1364C135.572 45.1364 138.798 44.4767 138.798 43.6629C138.798 42.8492 135.572 42.1895 131.593 42.1895C127.614 42.1895 124.388 42.8492 124.388 43.6629C124.388 44.4767 127.614 45.1364 131.593 45.1364Z" fill="#B7C2CE"/>
<path d="M91.5429 27.6657C95.522 27.6657 98.7477 27.006 98.7477 26.1922C98.7477 25.3785 95.522 24.7188 91.5429 24.7188C87.5638 24.7188 84.3381 25.3785 84.3381 26.1922C84.3381 27.006 87.5638 27.6657 91.5429 27.6657Z" fill="#B7C2CE"/>
<path opacity="0.05" d="M96.8405 12.2995C100.82 12.2995 104.045 11.6398 104.045 10.826C104.045 10.0122 100.82 9.35254 96.8405 9.35254C92.8614 9.35254 89.6357 10.0122 89.6357 10.826C89.6357 11.6398 92.8614 12.2995 96.8405 12.2995Z" fill="black"/>
<path opacity="0.05" d="M83.0667 18.614C87.0458 18.614 90.2715 17.9543 90.2715 17.1405C90.2715 16.3267 87.0458 15.667 83.0667 15.667C79.0876 15.667 75.8619 16.3267 75.8619 17.1405C75.8619 17.9543 79.0876 18.614 83.0667 18.614Z" fill="black"/>
<path opacity="0.05" d="M109.555 21.3503C113.534 21.3503 116.759 20.6906 116.759 19.8768C116.759 19.063 113.534 18.4033 109.555 18.4033C105.576 18.4033 102.35 19.063 102.35 19.8768C102.35 20.6906 105.576 21.3503 109.555 21.3503Z" fill="black"/>
<path d="M91.5429 49.5573C95.522 49.5573 98.7477 48.8976 98.7477 48.0838C98.7477 47.2701 95.522 46.6104 91.5429 46.6104C87.5638 46.6104 84.3381 47.2701 84.3381 48.0838C84.3381 48.8976 87.5638 49.5573 91.5429 49.5573Z" fill="#B7C2CE"/>
<path opacity="0.2" d="M91.5429 53.7909C125.062 53.7909 152.237 46.7371 152.237 38.0352H30.8491C30.8491 46.7371 58.0238 53.7909 91.5429 53.7909Z" fill="#072D57"/>
</g>
<defs>
<linearGradient id="paint0_linear" x1="91.5429" y1="51.7359" x2="91.5429" y2="3.96777" gradientUnits="userSpaceOnUse">
<stop stop-color="#808080" stop-opacity="0.25"/>
<stop offset="0.54" stop-color="#808080" stop-opacity="0.12"/>
<stop offset="1" stop-color="#808080" stop-opacity="0.1"/>
</linearGradient>
<linearGradient id="paint1_linear" x1="-9980.41" y1="72465" x2="-7766.92" y2="65849.8" gradientUnits="userSpaceOnUse">
<stop stop-color="#808080" stop-opacity="0.25"/>
<stop offset="0.54" stop-color="#808080" stop-opacity="0.12"/>
<stop offset="1" stop-color="#808080" stop-opacity="0.1"/>
</linearGradient>
<linearGradient id="paint2_linear" x1="-8679.58" y1="57872.2" x2="-6466.1" y2="51257" gradientUnits="userSpaceOnUse">
<stop stop-color="#808080" stop-opacity="0.25"/>
<stop offset="0.54" stop-color="#808080" stop-opacity="0.12"/>
<stop offset="1" stop-color="#808080" stop-opacity="0.1"/>
</linearGradient>
<linearGradient id="paint3_linear" x1="54255.1" y1="8432.69" x2="54255.1" y2="3387.23" gradientUnits="userSpaceOnUse">
<stop stop-color="#808080" stop-opacity="0.25"/>
<stop offset="0.54" stop-color="#808080" stop-opacity="0.12"/>
<stop offset="1" stop-color="#808080" stop-opacity="0.1"/>
</linearGradient>
<clipPath id="clip0">
<rect width="178" height="153" fill="white"/>
</clipPath>
</defs>
</svg>
