<svg width="204" height="80" viewBox="0 0 204 80" fill="none" xmlns="http://www.w3.org/2000/svg">
<circle cx="36" cy="40" r="16" fill="#DDE2E8"/>
<rect x="72" y="28" width="100" height="12" rx="2" fill="#B7C2CE"/>
<rect x="72" y="46" width="112" height="8" rx="2" fill="#DDE2E8"/>
<path d="M39.7457 36.9875C39.7457 38.125 39.2582 39.2 38.2832 40.2125C38.1332 40.375 37.9207 40.5812 37.6457 40.8312C37.4832 40.9812 37.327 41.1375 37.177 41.3C37.027 41.45 36.9082 41.6 36.8207 41.75C36.6582 42.025 36.5582 42.2562 36.5207 42.4437C36.4832 42.6312 36.4645 42.9312 36.4645 43.3437H34.0832C34.0832 42.3937 34.2645 41.6 34.627 40.9625C34.7645 40.6875 34.9145 40.4625 35.077 40.2875C35.2395 40.1125 35.4707 39.9062 35.7707 39.6687C36.2207 39.2812 36.5395 38.9875 36.727 38.7875C36.9645 38.525 37.127 38.2562 37.2145 37.9812C37.3145 37.7062 37.3645 37.3937 37.3645 37.0437C37.3645 36.6187 37.2645 36.2687 37.0645 35.9937C36.727 35.5687 36.2082 35.3562 35.5082 35.3562C34.9207 35.3562 34.4707 35.4937 34.1582 35.7687C33.7832 36.0687 33.6082 36.4937 33.6332 37.0437H31.252C31.3145 36.4062 31.4832 35.825 31.7582 35.3C32.0457 34.7625 32.4145 34.3375 32.8645 34.025C33.2145 33.7625 33.6082 33.5687 34.0457 33.4437C34.4957 33.3062 34.952 33.2375 35.4145 33.2375C36.1395 33.2375 36.802 33.35 37.402 33.575C38.002 33.8 38.4957 34.1437 38.8832 34.6062C39.1582 34.9187 39.3707 35.2875 39.5207 35.7125C39.6707 36.125 39.7457 36.55 39.7457 36.9875ZM34.0832 44.5062H36.4645V47H34.0832V44.5062Z" fill="white"/>
</svg>
